<?xml version="1.0" encoding="UTF-8"?>
<svg id="Line" xmlns="http://www.w3.org/2000/svg" version="1.1" viewBox="0 0 512 512">
  <!-- Generator: Adobe Illustrator 29.8.5, SVG Export Plug-In . SVG Version: 2.1.1 Build 2)  -->
  <defs>
    <style>
      .st0 {
        fill: #fff;
      }
    </style>
  </defs>
  <path class="st0" d="M37.89,441.14c-.1,21.36,17.14,38.76,38.5,38.86.12,0,.24,0,.36,0h358.52c21.45-.02,38.83-17.41,38.86-38.86v-246.86c-.13-1.49-.56-2.94-1.25-4.26-.65-.71-1.28-1.45-1.98-2.11l-52.59-38.64v-45.48c0-4.42-3.58-8-8-8h-64.8l-84.75-62.25c-2.83-2.08-6.7-2.07-9.52.04l-83.42,62.21h-66.08c-4.42,0-8,3.58-8,8v47.21l-52.63,39.26c-.65.77-1.47,1.46-2.04,2.28-.66,1.32-1.05,2.76-1.15,4.23,0,4.79,0,244.38,0,244.38h0ZM242.14,329.35l-186.56,120.35c-1.11-2.72-1.69-5.62-1.7-8.56v-229.98l188.26,118.19ZM435.26,464H76.74c-3.49-.02-6.93-.85-10.04-2.43l391.42-252.51v232.09c-.01,12.62-10.24,22.84-22.86,22.86h0ZM452.04,193.94l-33.76,21.78v-46.58l33.76,24.81ZM256.04,49.95l62.42,45.84h-123.9l61.48-45.84ZM402.29,111.8v114.24l-145.3,93.74-147.27-92.46v-115.52h292.57ZM93.71,217.27l-33.71-21.16,33.71-25.14v46.3Z"/>
  <path class="st0" d="M247.45,276.77c10.37,1.7,52.67-1.56,45.95-18.16-1.96-3.96-6.76-5.57-10.71-3.61,0,0,0,0-.01,0-61.86,29.64-117.31-50.27-67.53-97.7,33.14-32.42,93.3-12.41,100.02,33.71,2.29,13.33.01,27.04-6.45,38.92-1.03,1.91-2.93,3.21-5.09,3.49-5.53.87-9.47-4.85-9.4-9.87v-52.54c.03-4.39-3.5-7.97-7.89-8-4.18-.03-7.67,3.19-7.98,7.36-6.48-4.76-14.31-7.34-22.35-7.36-21.11.03-38.2,17.17-38.17,38.28.03,21.07,17.1,38.13,38.17,38.17,8.52-.04,16.78-2.95,23.45-8.26,1.23,4.34,3.54,8.3,6.71,11.51,34.08,26.57,50.8-27.62,44.79-54.29-8.94-58.67-84.17-83.99-126.71-42.83-47.41,43.12-20.66,124.68,43.2,131.18h0ZM256,223.46c-12.27-.15-22.1-10.22-21.95-22.5.15-12.06,9.89-21.8,21.95-21.95,12.27.11,22.14,10.14,22.03,22.42-.11,12.12-9.91,21.92-22.03,22.03Z"/>
</svg>